# xmcd
#
# Track frame offsets: 
#        150
#        12308
#        27041
#        44285
#        59876
#        81644
#        96534
#        117855
#        129470
#        143743
#        160664
#        178654
#        194672
#        209271
#        226677
#        242667
#        255663
#        265504
#        279405
#        292463
#
# Disc length: 4160 seconds
#
# Revision: 3
# Processed by: cddbd v1.5.2PL0 Copyright (c) Steve Scherf et al.
# Submitted via: ExactAudioCopy v0.99pb4
#
DISCID=2b103e14
DTITLE=Z. Breitman et F. Cluzet - Contes de Grimm
DYEAR=2003
DGENRE=Audio Book
TTITLE0=01 Blanche-Neige
TTITLE1=02 Au bout d'une année, le roi épousa...
TTITLE2=03 Avant de rentrer au château, il attrapa un marcassin...
TTITLE3=04 Mais le septième, quand il regarda son lit...
TTITLE4=05 La reine en fut bouleversée...
TTITLE5=06 Par bonheur, le soir ne tarda pas à se coucher...
TTITLE6=07 Et quand la reine fut de retour au palais...
TTITLE7=08 Après avoir revêtu ses beaux atours...
TTITLE8=09 Les Musiciens de Brême
TTITLE9=10 Viens donc à Brême avec nous...
TTITLE10=11 Puis les quatre musiciens ayant terminé leur festin...
TTITLE11=12 Tom Pouce
TTITLE12=13 C'est étrange en effet, répondit l'autre...
TTITLE13=14 Quand ils se furent bien éloignés...
TTITLE14=15 La servante se leva dès l'aurore...
TTITLE15=16 Le loup ne se le fit pas répéter deux fois...
TTITLE16=17 Le Roitelet
TTITLE17=18 Je connais une histoire de ce temps...
TTITLE18=19 Les petits oiseaux furent les premiers à ralentir...
TTITLE19=20 Ils confièrent la garde au hibou...
EXTD=YEAR: 2003
EXTT0=
EXTT1=
EXTT2=
EXTT3=
EXTT4=
EXTT5=
EXTT6=
EXTT7=
EXTT8=
EXTT9=
EXTT10=
EXTT11=
EXTT12=
EXTT13=
EXTT14=
EXTT15=
EXTT16=
EXTT17=
EXTT18=
EXTT19=
PLAYORDER=
